PathFileType  4	(X/Y/Z) C:\Users\antoi\Documents\MyRepositories\mobilecap\ResultsAnalysis
DataRate	CameraRate	NumFrames	NumMarkers	Units	OrigDataRate	OrigDataStartFrame	OrigNumFrames
100.0	100.0	4	51	mm	100.0	33	260
Frame#	Time	r_knee			r_shank_antsup			r_ankle			r_calc			r_5meta			r_toe			L_knee			L_shank_antsup			L_ankle			L_calc			L_5meta			L_toe			r_sh2			r_sh3			r_sh4			L_sh2			L_sh3			r_thigh1			r_thigh2			r_thigh3			r_thigh4			r_thigh5			L_thigh1			L_thigh2			L_thigh3			L_thigh4			r.ASIS			r.PSIS			L.ASIS			L.PSIS			C7			R_Shoulder			L_Shoulder			R_Sternum			L_Sternum			R_humerus			R_elbow_med			R_elbow_lat			R_forearm			R_wrist_radius			R_wrist_ulna			L_humerus			L_elbow_med			L_elbow_lat			L_forearm			L_wrist_radius			L_wrist_ulna			R_HJC			L_HJC			R_HJC_reg			L_HJC_reg			
		X1	Y1	Z1	X2	Y2	Z2	X3	Y3	Z3	X4	Y4	Z4	X5	Y5	Z5	X6	Y6	Z6	X7	Y7	Z7	X8	Y8	Z8	X9	Y9	Z9	X10	Y10	Z10	X11	Y11	Z11	X12	Y12	Z12	X13	Y13	Z13	X14	Y14	Z14	X15	Y15	Z15	X16	Y16	Z16	X17	Y17	Z17	X18	Y18	Z18	X19	Y19	Z19	X20	Y20	Z20	X21	Y21	Z21	X22	Y22	Z22	X23	Y23	Z23	X24	Y24	Z24	X25	Y25	Z25	X26	Y26	Z26	X27	Y27	Z27	X28	Y28	Z28	X29	Y29	Z29	X30	Y30	Z30	X31	Y31	Z31	X32	Y32	Z32	X33	Y33	Z33	X34	Y34	Z34	X35	Y35	Z35	X36	Y36	Z36	X37	Y37	Z37	X38	Y38	Z38	X39	Y39	Z39	X40	Y40	Z40	X41	Y41	Z41	X42	Y42	Z42	X43	Y43	Z43	X44	Y44	Z44	X45	Y45	Z45	X46	Y46	Z46	X47	Y47	Z47	X48	Y48	Z48	X49	Y49	Z49	X50	Y50	Z50	X51	Y51	Z51	

33	0.32000000	-1188.43700	803.71145	-444.08731	-1164.63605	703.54951	-452.66851	-1282.18388	400.10923	-468.72285	-1344.05546	365.41593	-517.45740	-1162.36616	350.81762	-430.03273	-1129.88179	379.22648	-484.91394	-1199.60078	811.16797	-722.20516	-1170.88906	724.11351	-709.20746	-1270.86127	404.80696	-706.21053	-1343.26855	361.28673	-663.96169	-1164.21356	350.58243	-743.63090	-1119.48687	374.39776	-685.79556	-1188.74268	592.90891	-457.80030	-1226.74206	715.53823	-410.86837	-1257.61897	603.81064	-411.86696	-1248.24014	747.63127	-750.14236	-1269.39083	627.34737	-754.69698	-1126.72462	1080.32176	-412.42459	-1123.24202	970.39805	-431.64555	-1174.17630	940.08024	-398.89338	-1238.97026	1069.52288	-396.60610	-1227.28783	955.68313	-415.20979	-1113.70281	1053.97252	-739.46840	-1111.00004	915.79479	-714.77514	-1217.95637	1047.22943	-776.65321	-1215.81379	916.70097	-744.48638	-1090.12964	1267.76627	-456.00143	-1292.22815	1324.86699	-535.63038	-1092.52046	1272.21694	-711.98805	-1291.32367	1325.91009	-629.42868	-1211.86614	1777.60818	-581.86111	-1146.26204	1746.99420	-416.61956	-1131.76528	1743.85831	-733.20183	-1093.81661	1696.34872	-556.54290	-1093.48318	1697.07233	-600.58781	-1117.61897	1612.61741	-364.55362	-1228.49423	1426.20243	-391.92220	-1205.98402	1434.65531	-333.17597	-1156.84724	1363.15837	-314.41011	-1118.80759	1197.12094	-340.07918	-1152.86759	1199.33449	-303.90516	-1114.77532	1601.83490	-794.05010	-1238.36125	1412.72263	-764.68666	-1191.08398	1426.11891	-831.84021	-1145.76483	1362.89553	-841.43012	-1118.89311	1185.47089	-822.95904	-1149.03184	1194.14553	-865.03085	-1183.00491	1190.94985	-483.23139	-1183.05166	1194.88972	-672.75301	-1173.26859	1200.42989	-493.75649	-1171.63927	1202.30879	-662.72217	
34	0.33000000	-1187.68943	803.48774	-444.23253	-1163.87744	703.19349	-452.78750	-1282.09431	400.06562	-468.69009	-1344.13086	365.33764	-517.37903	-1162.33481	350.96987	-430.07002	-1129.92945	379.29043	-484.87889	-1199.09535	810.92549	-721.93519	-1170.02200	723.79681	-708.97809	-1270.90724	404.77105	-706.20182	-1343.29586	361.26399	-663.97745	-1164.24167	350.59333	-743.62336	-1119.46145	374.44374	-685.79708	-1188.34309	592.53705	-457.87175	-1226.24313	715.24789	-411.12030	-1256.96689	603.72853	-411.78715	-1247.30247	747.71808	-750.16294	-1268.74026	627.38320	-754.70646	-1126.73671	1080.21012	-412.44633	-1122.94267	970.30157	-431.64683	-1173.77149	939.82919	-399.12124	-1238.95221	1068.84850	-396.65730	-1226.91785	955.27423	-415.34956	-1113.98855	1053.90458	-739.65245	-1110.88240	915.67931	-714.59353	-1218.09315	1046.78822	-775.89886	-1215.72942	916.37973	-744.05660	-1090.21900	1267.18055	-455.91005	-1292.17113	1325.13899	-535.39371	-1093.00839	1271.94644	-711.81866	-1291.36474	1326.12477	-629.28722	-1208.29292	1777.77940	-581.36600	-1143.00261	1746.44889	-416.24906	-1128.62154	1743.39171	-732.72788	-1091.06166	1695.48416	-556.08974	-1090.78695	1696.14076	-600.12041	-1116.37974	1612.01593	-363.69234	-1230.03532	1426.86790	-390.92891	-1207.62370	1435.49396	-332.03783	-1159.74606	1363.49185	-312.42378	-1123.63532	1196.81655	-337.17065	-1158.03710	1199.57435	-301.38378	-1113.72499	1601.28749	-794.17605	-1240.28593	1414.24440	-765.28947	-1193.22264	1427.13598	-832.61298	-1149.20892	1362.98459	-842.81061	-1126.04918	1184.95239	-825.99355	-1156.31504	1194.50316	-867.69429	-1183.43925	1190.75071	-483.16085	-1183.62188	1194.83761	-672.67917	-1173.73573	1200.43131	-493.51761	-1172.28474	1202.20503	-662.44124	
35	0.34000000	-1186.87863	803.28376	-444.32867	-1163.10743	702.90281	-452.95904	-1282.02044	400.13705	-468.60890	-1344.13282	365.27107	-517.34607	-1162.37149	350.92185	-430.07709	-1129.98364	379.33352	-484.85173	-1198.36379	810.80816	-721.93944	-1169.01214	723.35624	-708.62992	-1270.93854	404.72800	-706.19897	-1343.32878	361.21881	-663.93644	-1164.26885	350.60748	-743.61540	-1119.47829	374.46719	-685.80095	-1187.86488	592.29339	-458.04024	-1225.36905	714.92948	-411.37726	-1256.57436	603.42619	-411.95182	-1246.25153	747.65362	-749.98189	-1268.02035	627.48450	-754.73131	-1126.74239	1080.07358	-412.61082	-1122.80052	970.13268	-431.72176	-1173.36063	939.51969	-399.33380	-1238.81311	1068.37673	-396.63760	-1226.51285	955.00726	-415.21605	-1114.31377	1053.82217	-739.77073	-1110.74961	915.63784	-714.53037	-1218.42508	1046.36891	-774.56598	-1215.58269	916.04989	-743.81230	-1090.28538	1266.61175	-455.88087	-1292.11650	1325.39805	-535.14129	-1093.58678	1271.76400	-711.68045	-1291.38786	1326.33711	-629.22503	-1204.73539	1777.95637	-581.07524	-1139.60171	1745.75083	-415.88061	-1125.39864	1742.75333	-732.21120	-1088.15992	1694.51161	-555.77541	-1087.86211	1695.18702	-599.65668	-1115.11810	1611.35876	-362.75096	-1231.60377	1427.60167	-389.86981	-1209.30287	1436.38144	-330.82449	-1162.73894	1363.79921	-310.35234	-1128.61617	1196.52444	-334.26624	-1163.34628	1199.86626	-298.89761	-1112.56271	1600.72269	-794.35136	-1242.21959	1415.87349	-765.74273	-1195.49034	1428.19831	-833.32089	-1152.85446	1363.26834	-844.36265	-1133.58520	1184.51824	-828.89269	-1163.98124	1194.92835	-870.10813	-1183.84463	1190.55660	-483.15255	-1184.19886	1194.82920	-672.66652	-1174.22397	1200.46352	-493.35862	-1172.91618	1202.14912	-662.22136	
36	0.35000000	-1185.98454	803.08656	-444.38851	-1162.33265	702.59904	-453.18072	-1281.94817	400.01525	-468.52755	-1344.12666	365.23624	-517.35997	-1162.41828	350.80606	-430.05498	-1130.03312	379.36784	-484.82703	-1197.42287	810.72614	-722.10492	-1167.88123	722.89355	-708.31752	-1270.95481	404.68168	-706.19249	-1343.35977	361.15898	-663.87009	-1164.29412	350.62335	-743.61422	-1119.53852	374.49988	-685.82168	-1187.31297	592.11376	-458.35904	-1224.25198	714.69279	-411.52217	-1256.27969	603.14794	-412.24460	-1245.08799	747.40602	-749.61215	-1267.28220	627.54713	-754.72708	-1127.17563	1079.79256	-413.14467	-1122.76141	969.92381	-431.93925	-1172.89108	939.16800	-399.48981	-1238.51959	1067.87188	-396.90480	-1226.07601	954.68837	-415.03523	-1114.49111	1053.74441	-739.91858	-1110.45024	915.63722	-714.57031	-1218.60084	1045.95166	-773.41428	-1215.33181	915.74453	-743.73431	-1090.38560	1266.03577	-455.86935	-1292.08828	1325.63143	-534.93299	-1094.05136	1271.48889	-711.51577	-1291.38315	1326.59459	-629.26935	-1201.00797	1778.09087	-580.78785	-1136.07748	1745.05798	-415.61650	-1122.02859	1742.00505	-731.70449	-1085.14699	1693.47227	-555.48531	-1084.73960	1694.18732	-599.31653	-1113.82877	1610.63095	-361.76400	-1233.13116	1428.36153	-388.81434	-1211.05153	1437.27608	-329.56452	-1165.74090	1364.07000	-308.40552	-1133.74030	1196.33325	-331.22508	-1168.85765	1200.32289	-296.37176	-1111.34133	1600.02249	-794.45968	-1244.18411	1417.55858	-766.14092	-1197.78485	1429.27115	-833.98636	-1156.64679	1363.61391	-845.94401	-1141.45951	1184.19203	-831.73095	-1171.96635	1195.51479	-872.50288	-1184.29954	1190.36015	-483.15657	-1184.73794	1194.78431	-672.66695	-1174.70398	1200.36416	-493.30867	-1173.44279	1202.08680	-662.07734	
